<?xml version="1.0" encoding="UTF-8"?>
<svg version="1.1" xmlns="http://www.w3.org/2000/svg" width="500" height="500">
<path d="M0 0 C1.91918329 -0.00379464 3.83836382 -0.00930402 5.75753784 -0.01637268 C10.91239268 -0.03019253 16.0669087 -0.01925462 21.2217443 -0.00266147 C26.64789752 0.01131602 32.07403358 0.00471486 37.50019836 0.00120544 C46.60419089 -0.00148604 55.70805077 0.01188946 64.81201172 0.03515625 C75.30266678 0.0617832 85.79310059 0.0635014 96.28377789 0.05176789 C106.42537211 0.04095096 116.56688715 0.04720628 126.70847511 0.06132317 C131.00274362 0.06704667 135.29695348 0.06702922 139.59122276 0.06225777 C144.65496903 0.05744938 149.71847611 0.06774789 154.78217697 0.08921242 C156.62871176 0.09472736 158.47526979 0.09529499 160.32180595 0.09025955 C189.38021674 0.0210149 215.2135135 8.86009234 236.1105957 29.50170898 C247.91090246 41.45291481 256.76894993 56.21167746 261.1105957 72.50170898 C261.35696305 73.4109676 261.6033304 74.32022621 261.85716343 75.25703812 C264.36639708 85.57361686 264.54324474 95.4169841 264.51464844 105.98120117 C264.52036311 107.90477899 264.52733158 109.82835342 264.53544617 111.75192261 C264.55327414 116.93813675 264.55222849 122.12418073 264.54650378 127.31041622 C264.54339601 131.65875865 264.54952214 136.00706914 264.55554253 140.355407 C264.56955296 150.6249049 264.56805632 160.89431955 264.55664062 171.16381836 C264.54517054 181.71457189 264.5592245 192.26507089 264.5860371 202.81579089 C264.60828104 211.9135372 264.61481175 221.01120412 264.60896069 230.10897565 C264.60560971 235.52527545 264.60788099 240.94141229 264.62521172 246.3576889 C264.64081744 251.45671909 264.63657611 256.55537607 264.61790657 261.65439224 C264.61425767 263.51095896 264.61721911 265.36755419 264.62779236 267.22409439 C264.78527628 297.19715565 254.92686032 321.78152035 234.1105957 343.50170898 C213.29618521 364.22547045 186.54704045 370.81939695 158.10766602 370.77636719 C156.19936932 370.78072094 154.29107437 370.78590629 152.38278198 370.79185486 C147.22554601 370.80518626 142.0683836 370.80582996 136.91113377 370.80329156 C132.59248928 370.80221763 128.27385941 370.80711609 123.95521808 370.81189698 C113.75830145 370.82297241 103.56142167 370.82344096 93.36450195 370.81738281 C82.87684708 370.81134729 72.38932651 370.82364789 61.90169454 370.84495288 C52.86945727 370.86262053 43.83726254 370.86856203 34.80500865 370.86531514 C29.42287843 370.86351 24.04084398 370.86606098 18.65872955 370.88002968 C13.59263834 370.89268733 8.526755 370.89058949 3.46066666 370.87761879 C1.6125163 370.87527046 -0.23564906 370.8779243 -2.0837822 370.88624191 C-31.16476371 371.00757673 -56.88686412 362.057238 -77.8894043 341.50170898 C-98.1521899 320.3059606 -106.54412024 294.46073335 -106.40698242 265.59570312 C-106.41241657 263.65050231 -106.41954642 261.70530563 -106.42822266 259.76011658 C-106.44630645 254.52444781 -106.43945048 249.28909777 -106.42670631 244.05342412 C-106.4164991 238.54410721 -106.42599338 233.03481555 -106.43225098 227.52549744 C-106.43950568 218.27671467 -106.4299977 209.02806012 -106.41088867 199.77929688 C-106.38913067 189.12622641 -106.39617245 178.47346237 -106.41819429 167.82039934 C-106.4364183 158.63259947 -106.43887236 149.44489119 -106.42843962 140.25707906 C-106.42224218 134.78775517 -106.4212646 129.31857469 -106.43458557 123.84926033 C-106.44624568 118.70340767 -106.43793513 113.55794522 -106.41500854 108.41213417 C-106.40977494 106.53741347 -106.41114188 104.66265922 -106.4200592 102.78795242 C-106.55152201 72.31146855 -95.46960651 47.89762739 -74.48706055 25.99389648 C-54.00664698 6.43356805 -27.50636511 -0.15762815 0 0 Z M122.1105957 110.50170898 C122.1105957 110.83170898 122.1105957 111.16170898 122.1105957 111.50170898 C124.4205957 111.50170898 126.7305957 111.50170898 129.1105957 111.50170898 C129.1105957 111.17170898 129.1105957 110.84170898 129.1105957 110.50170898 C126.8005957 110.50170898 124.4905957 110.50170898 122.1105957 110.50170898 Z " fill="#1F367D" transform="translate(170.889404296875,64.498291015625)"/>
<path d="M0 0 C9.59441508 0.46920411 18.6416621 1.94194229 28 4 C28 5.98 28 7.96 28 10 C29.13179688 10.19335938 30.26359375 10.38671875 31.4296875 10.5859375 C32.91153202 10.84854286 34.39329892 11.11158648 35.875 11.375 C36.62136719 11.50132813 37.36773437 11.62765625 38.13671875 11.7578125 C43.7734375 12.7734375 43.7734375 12.7734375 46 15 C46.3125 18.5 46.3125 18.5 46 22 C42.67995379 24.21336414 41.92589068 24.20762974 38.11328125 23.9765625 C37.17548828 23.925 36.23769531 23.8734375 35.27148438 23.8203125 C33.80678711 23.72363281 33.80678711 23.72363281 32.3125 23.625 C30.83040039 23.53992188 30.83040039 23.53992188 29.31835938 23.453125 C26.87817115 23.31166481 24.43901409 23.16025726 22 23 C21.73832031 23.63035156 21.47664063 24.26070312 21.20703125 24.91015625 C19.61846932 27.66057901 17.69289216 28.05549296 14.81640625 29.1484375 C11.32021538 30.78751193 8.71254955 33.5749009 7 37 C6.76811572 39.54786428 6.58133625 42.0725115 6.4375 44.625 C6.293125 47.05875 6.14875 49.4925 6 52 C-1.59 52 -9.18 52 -17 52 C-17.495 49.03 -17.495 49.03 -18 46 C-17.505 51.445 -17.505 51.445 -17 57 C-15.68 57 -14.36 57 -13 57 C-12.67 57.66 -12.34 58.32 -12 59 C1.365 59.495 1.365 59.495 15 60 C14.88168514 53.92683531 14.88168514 53.92683531 14.72973633 47.85449219 C14.69629685 44.45589059 14.77582721 41.63419823 15.9140625 38.4140625 C19.48444878 35.99368828 23.36710711 36.50716931 27.5625 36.625 C28.87637695 36.62693359 28.87637695 36.62693359 30.21679688 36.62890625 C36.71900615 36.71900615 36.71900615 36.71900615 39 39 C39.22705078 41.33837891 39.22705078 41.33837891 39.1953125 44.2265625 C39.18886719 45.2578125 39.18242187 46.2890625 39.17578125 47.3515625 C39.15064453 48.97191406 39.15064453 48.97191406 39.125 50.625 C39.11597656 51.71296875 39.10695313 52.8009375 39.09765625 53.921875 C39.07403409 56.61480152 39.04109556 59.30729255 39 62 C39.68626465 61.98428955 40.3725293 61.9685791 41.07958984 61.95239258 C44.17797663 61.89017281 47.27623224 61.85105102 50.375 61.8125 C51.45523438 61.78736328 52.53546875 61.76222656 53.6484375 61.73632812 C54.6796875 61.72666016 55.7109375 61.71699219 56.7734375 61.70703125 C57.72653809 61.6913208 58.67963867 61.67561035 59.66162109 61.65942383 C60.81911865 61.82800903 60.81911865 61.82800903 62 62 C64.49111925 65.73667887 64.29613477 68.67870976 64.25 73 C64.25773438 73.72445312 64.26546875 74.44890625 64.2734375 75.1953125 C64.25942063 78.99388493 64.15441944 80.76837084 62 84 C59.66162109 84.34057617 59.66162109 84.34057617 56.7734375 84.29296875 C55.7421875 84.28330078 54.7109375 84.27363281 53.6484375 84.26367188 C52.02808594 84.2259668 52.02808594 84.2259668 50.375 84.1875 C49.28703125 84.17396484 48.1990625 84.16042969 47.078125 84.14648438 C44.38492591 84.11104754 41.69270626 84.06164331 39 84 C39.01047363 84.68626465 39.02094727 85.3725293 39.03173828 86.07958984 C39.07321874 89.17802289 39.09930069 92.27639761 39.125 95.375 C39.14175781 96.45523438 39.15851563 97.53546875 39.17578125 98.6484375 C39.18222656 99.6796875 39.18867188 100.7109375 39.1953125 101.7734375 C39.20578613 102.72653809 39.21625977 103.67963867 39.22705078 104.66162109 C39 107 39 107 37 109 C34.75341797 109.22705078 34.75341797 109.22705078 31.9921875 109.1953125 C31.1038623 109.19031738 30.21553711 109.18532227 29.30029297 109.18017578 C27.60477295 109.15286377 27.60477295 109.15286377 25.875 109.125 C22.28625 109.08375 18.6975 109.0425 15 109 C14.67 101.74 14.34 94.48 14 87 C5.37874864 86.56960414 5.37874864 86.56960414 -3 88 C-3.66 88.66 -4.32 89.32 -5 90 C-2.07175348 90.97608217 -0.04386724 91.08226668 3 91 C3 91.66 3 92.32 3 93 C3.99 93 4.98 93 6 93 C6.02578125 93.84304687 6.0515625 94.68609375 6.078125 95.5546875 C6.13484375 96.65039062 6.1915625 97.74609375 6.25 98.875 C6.29640625 99.96554688 6.3428125 101.05609375 6.390625 102.1796875 C6.68846128 105.1332065 6.68846128 105.1332065 9.046875 106.3828125 C9.69140625 106.58648437 10.3359375 106.79015625 11 107 C10.34 107.99 9.68 108.98 9 110 C9.70135183 113.11711922 10.51391937 114.6092478 13.01171875 116.6171875 C17.10211419 118.50999794 20.79249715 118.52594438 25.25 118.625 C33.8942926 118.8942926 33.8942926 118.8942926 35 120 C36.95223586 120.10951521 38.90807728 120.15588423 40.86328125 120.17578125 C42.06017578 120.19962891 43.25707031 120.22347656 44.49023438 120.24804688 C47.02652464 120.29081518 49.56303444 120.32217407 52.09960938 120.34179688 C53.30037109 120.36951172 54.50113281 120.39722656 55.73828125 120.42578125 C57.39404175 120.44765503 57.39404175 120.44765503 59.08325195 120.4699707 C62.64109636 121.11649956 63.83294027 122.15156016 66 125 C66.5 128.0625 66.5 128.0625 66 131 C64.17424336 133.14676879 62.6912587 133.92263343 59.890625 134.23608398 C57.33720884 134.29567392 54.80300012 134.26103545 52.25 134.1875 C51.36183594 134.17396484 50.47367187 134.16042969 49.55859375 134.14648438 C47.37177422 134.11121309 45.18620034 134.06192752 43 134 C43 135.98 43 137.96 43 140 C38.45943197 140.26200753 33.92080597 140.42142326 29.375 140.5625 C28.08980469 140.63791016 26.80460937 140.71332031 25.48046875 140.79101562 C16.1848327 141.00775325 16.1848327 141.00775325 12.93847656 138.24658203 C11.36214213 135.90328668 10.17609399 133.56522672 9 131 C8.14103479 129.58907069 7.2665847 128.18742147 6.375 126.796875 C5.57981755 125.44998615 4.78810723 124.10104097 4 122.75 C3.58105469 122.069375 3.16210938 121.38875 2.73046875 120.6875 C-0.17097292 115.68032976 -0.17097292 115.68032976 0.75 112.015625 C1.1625 111.35046875 1.575 110.6853125 2 110 C0.7625 110.04125 -0.475 110.0825 -1.75 110.125 C-5.08258417 110.13675515 -7.0991354 109.71903088 -10 108 C-10.99 108 -11.98 108 -13 108 C-13 108.99 -13 109.98 -13 111 C-16.41488492 111.84075218 -19.83217213 112.67129993 -23.25 113.5 C-24.70212891 113.85771484 -24.70212891 113.85771484 -26.18359375 114.22265625 C-27.11816406 114.44824219 -28.05273438 114.67382812 -29.015625 114.90625 C-29.87446289 115.11572266 -30.73330078 115.32519531 -31.61816406 115.54101562 C-34 116 -34 116 -38 116 C-38.33 114.35 -38.66 112.7 -39 111 C-43.47044413 111.39323351 -47.79103125 111.86428511 -52.125 113.0625 C-56.03954086 114.00956634 -59.01861617 114.16589099 -63 114 C-63 113.34 -63 112.68 -63 112 C-63.66 112 -64.32 112 -65 112 C-66.25 105.375 -66.25 105.375 -64 102 C-61.35212216 101.129983 -58.8305655 100.42783658 -56.125 99.8125 C-55.40441406 99.63525391 -54.68382812 99.45800781 -53.94140625 99.27539062 C-50.50960151 98.45693996 -47.54649462 98 -44 98 C-44 95.69 -44 93.38 -44 91 C-36.45079357 88.00634918 -30.1125455 86.86012853 -22 87 C-21.01 89.97 -20.02 92.94 -19 96 C-18.505 94.515 -18.505 94.515 -18 93 C-18.66 93 -19.32 93 -20 93 C-20 90.69 -20 88.38 -20 86 C-21.32 86 -22.64 86 -24 86 C-24 84.68 -24 83.36 -24 82 C-24.845625 82.2165625 -25.69125 82.433125 -26.5625 82.65625 C-32.86514079 84.20326183 -38.50965699 85.38178488 -45 85 C-45.33 83.35 -45.66 81.7 -46 80 C-51.08303686 79.88679144 -51.08303686 79.88679144 -56 81 C-57.66267874 81.14220279 -59.3315173 81.22020567 -61 81.25 C-61.86625 81.27578125 -62.7325 81.3015625 -63.625 81.328125 C-66 81 -66 81 -67.7890625 79.671875 C-69.66397746 77.08328273 -69.38727735 75.09821879 -69 72 C-66.82950042 69.16230901 -65.02886238 68.5409806 -61.55078125 68.05078125 C-60.27944336 67.86225586 -60.27944336 67.86225586 -58.98242188 67.66992188 C-57.66081055 67.49299805 -57.66081055 67.49299805 -56.3125 67.3125 C-55.41982422 67.18294922 -54.52714844 67.05339844 -53.60742188 66.91992188 C-51.40628656 66.60211089 -49.20416436 66.29593975 -47 66 C-46.71125 64.865625 -46.4225 63.73125 -46.125 62.5625 C-45.75375 61.386875 -45.3825 60.21125 -45 59 C-41.95786733 57.47893366 -38.71952428 57.62570662 -35.375 57.4375 C-34.66859375 57.39431641 -33.9621875 57.35113281 -33.234375 57.30664062 C-31.48981463 57.20055249 -29.74493303 57.09977111 -28 57 C-27.89042969 55.96101563 -27.78085938 54.92203125 -27.66796875 53.8515625 C-26.78778781 45.96211267 -25.70905625 38.513116 -23 31 C-22.01 31 -21.02 31 -20 31 C-19.95875 30.401875 -19.9175 29.80375 -19.875 29.1875 C-19.58625 28.465625 -19.2975 27.74375 -19 27 C-18.11054688 26.67644531 -17.22109375 26.35289062 -16.3046875 26.01953125 C-11.3501978 22.99178754 -9.7252904 18.6219998 -7.25 13.5 C-6.29789616 11.59323976 -5.34481301 9.68696812 -4.390625 7.78125 C-3.97844727 6.93626953 -3.56626953 6.09128906 -3.14160156 5.22070312 C-2 3 -2 3 0 0 Z " fill="#23397C" transform="translate(242,113)"/>
<path d="M0 0 C3.95099928 -0.0246985 7.90196874 -0.04285923 11.85302734 -0.05493164 C13.85906551 -0.06244036 15.86508202 -0.0751447 17.87109375 -0.08789062 C19.75634766 -0.09272461 19.75634766 -0.09272461 21.6796875 -0.09765625 C23.42354736 -0.10551147 23.42354736 -0.10551147 25.20263672 -0.11352539 C28 0 28 0 30 1 C31.04808041 2.97522846 32.0520411 4.97481509 33 7 C33.7113208 7.01458252 34.4226416 7.02916504 35.15551758 7.04418945 C38.37506332 7.11861006 41.59356518 7.21529 44.8125 7.3125 C45.93205078 7.33505859 47.05160156 7.35761719 48.20507812 7.38085938 C49.27822266 7.41630859 50.35136719 7.45175781 51.45703125 7.48828125 C52.44678955 7.51446533 53.43654785 7.54064941 54.45629883 7.56762695 C57.37451992 8.06366012 58.27199143 8.6379111 60 11 C60.94016982 14.15628441 61.38686889 16.06435674 60.11328125 19.14453125 C56.66658074 22.17074704 52.75056091 21.67857546 48.3125 21.75 C46.97348633 21.79447266 46.97348633 21.79447266 45.60742188 21.83984375 C43.40485723 21.91051427 41.20334869 21.96321939 39 22 C39 23.32 39 24.64 39 26 C40.485 26.495 40.485 26.495 42 27 C41.01 28.32 40.02 29.64 39 31 C39.99 31 40.98 31 42 31 C42.495 32.98 42.495 32.98 43 35 C42.34 35 41.68 35 41 35 C41.495 37.475 41.495 37.475 42 40 C42.97610229 40.02187378 42.97610229 40.02187378 43.97192383 40.04418945 C46.91938306 40.11864549 49.86570642 40.21531266 52.8125 40.3125 C53.83666016 40.33505859 54.86082031 40.35761719 55.91601562 40.38085938 C57.39038086 40.4340332 57.39038086 40.4340332 58.89453125 40.48828125 C59.80050049 40.51446533 60.70646973 40.54064941 61.63989258 40.56762695 C64.43622921 41.07991744 65.35924674 41.70201413 67 44 C67.65403397 50.10431701 67.65403397 50.10431701 65.76831055 52.68676758 C63.51502839 54.36016323 62.12201248 54.42286584 59.33203125 54.51171875 C58.43935547 54.54716797 57.54667969 54.58261719 56.62695312 54.61914062 C55.69818359 54.64169922 54.76941406 54.66425781 53.8125 54.6875 C52.87212891 54.72166016 51.93175781 54.75582031 50.96289062 54.79101562 C48.64204607 54.87348218 46.32157852 54.94263403 44 55 C43.34 57.31 42.68 59.62 42 62 C36.72 62 31.44 62 26 62 C26 62.99 26 63.98 26 65 C27.14339844 64.98839844 28.28679687 64.97679687 29.46484375 64.96484375 C30.95572754 64.95546712 32.44661309 64.94636679 33.9375 64.9375 C34.69224609 64.92912109 35.44699219 64.92074219 36.22460938 64.91210938 C38.14994313 64.90347559 40.07535581 64.94775667 42 65 C43.96822886 66.96822886 43.66248381 70.34808709 44 73 C45.04800781 73.02578125 46.09601563 73.0515625 47.17578125 73.078125 C48.55472902 73.13440858 49.93363365 73.19175588 51.3125 73.25 C52.00279297 73.26417969 52.69308594 73.27835937 53.40429688 73.29296875 C56.69135704 73.45176393 58.53881221 73.55267557 60.94921875 75.890625 C62.29444139 78.59107194 62.59501684 80.0249158 62 83 C59.87137553 85.30076175 58.15715051 86.81508143 54.99560547 87.3203125 C52.71374123 87.3931541 50.46823727 87.34941185 48.1875 87.25 C47.39923828 87.23195313 46.61097656 87.21390625 45.79882812 87.1953125 C43.86535739 87.14844048 41.93251715 87.0767041 40 87 C39.34 89.64 38.68 92.28 38 95 C33.9472484 95.98248524 30.16138263 96.08159574 26 96 C29.3 96.33 32.6 96.66 36 97 C31.34066293 109.85977032 23.86040923 119.78467909 15 130 C14.67 129.34 14.34 128.68 14 128 C14.8125 126.1171875 14.8125 126.1171875 16 123.875 C18.27832057 119.06087743 18.12266165 116.14553258 17 111 C17.99 111 18.98 111 20 111 C19.65213292 109.02463255 19.65213292 109.02463255 19 107 C18.01 106.505 18.01 106.505 17 106 C17 106.99 17 107.98 17 109 C14.03 109.495 14.03 109.495 11 110 C11.66 106.37 12.32 102.74 13 99 C3.43 99 -6.14 99 -16 99 C-16 100.65 -16 102.3 -16 104 C-18.13112021 106.13112021 -23.28220649 105.39927309 -26.27734375 105.51757812 C-30.24159136 105.72396823 -33.41247322 106.28271489 -37 108 C-36.67 106.68 -36.34 105.36 -36 104 C-30.06 104 -24.12 104 -18 104 C-17.67 102.02 -17.34 100.04 -17 98 C-15 96.75 -15 96.75 -13 96 C-12.67 95.34 -12.34 94.68 -12 94 C-3.09 94 5.82 94 15 94 C14.94889477 89.79914991 14.88591264 85.60197531 14.79248047 81.40234375 C14.76430389 79.97473063 14.74307273 78.54696247 14.72900391 77.11914062 C14.70752608 75.06299668 14.66086026 73.00870998 14.609375 70.953125 C14.58842773 69.71723633 14.56748047 68.48134766 14.54589844 67.20800781 C13.91457748 63.49800896 12.89517942 62.31009089 10 60 C10.99 59.67 11.98 59.34 13 59 C9.71250129 44.0657476 9.71250129 44.0657476 4 30 C3.34 29.67 2.68 29.34 2 29 C1.5859375 25.83984375 1.5859375 25.83984375 1.375 21.9375 C1.30023438 20.64714844 1.22546875 19.35679687 1.1484375 18.02734375 C1.09945312 17.02832031 1.05046875 16.02929688 1 15 C2.32 14.34 3.64 13.68 5 13 C4.56964222 9.55713778 3.51905738 6.86920001 1.953125 3.8125 C1.58864258 3.09707031 1.22416016 2.38164062 0.84863281 1.64453125 C0.56858398 1.10183594 0.28853516 0.55914062 0 0 Z " fill="#243C7E" transform="translate(260,258)"/>
<path d="M0 0 C1.93945312 -0.37231445 1.93945312 -0.37231445 4.28125 -0.36328125 C5.54388672 -0.36231445 5.54388672 -0.36231445 6.83203125 -0.36132812 C7.71246094 -0.34521484 8.59289062 -0.32910156 9.5 -0.3125 C10.38042969 -0.31572266 11.26085937 -0.31894531 12.16796875 -0.32226562 C18.73302968 -0.26697032 18.73302968 -0.26697032 21 2 C21.22705078 4.33837891 21.22705078 4.33837891 21.1953125 7.2265625 C21.18886719 8.2578125 21.18242187 9.2890625 21.17578125 10.3515625 C21.15902344 11.43179688 21.14226562 12.51203125 21.125 13.625 C21.11597656 14.71296875 21.10695313 15.8009375 21.09765625 16.921875 C21.07403409 19.61480152 21.04109556 22.30729255 21 25 C21.68626465 24.98428955 22.3725293 24.9685791 23.07958984 24.95239258 C26.17797663 24.89017281 29.27623224 24.85105102 32.375 24.8125 C33.99535156 24.77479492 33.99535156 24.77479492 35.6484375 24.73632812 C36.6796875 24.72666016 37.7109375 24.71699219 38.7734375 24.70703125 C39.72653809 24.6913208 40.67963867 24.67561035 41.66162109 24.65942383 C42.43328613 24.77181396 43.20495117 24.8842041 44 25 C46.49111925 28.73667887 46.29613477 31.67870976 46.25 36 C46.26160156 37.08667969 46.26160156 37.08667969 46.2734375 38.1953125 C46.25942063 41.99388493 46.15441944 43.76837084 44 47 C41.66162109 47.34057617 41.66162109 47.34057617 38.7734375 47.29296875 C37.7421875 47.28330078 36.7109375 47.27363281 35.6484375 47.26367188 C34.56820312 47.23853516 33.48796875 47.21339844 32.375 47.1875 C31.28703125 47.17396484 30.1990625 47.16042969 29.078125 47.14648438 C26.38492591 47.11104754 23.69270626 47.06164331 21 47 C21.01571045 48.02939697 21.01571045 48.02939697 21.03173828 49.07958984 C21.07321874 52.17802289 21.09930069 55.27639761 21.125 58.375 C21.14175781 59.45523438 21.15851563 60.53546875 21.17578125 61.6484375 C21.18544922 63.1953125 21.18544922 63.1953125 21.1953125 64.7734375 C21.21102295 66.20308838 21.21102295 66.20308838 21.22705078 67.66162109 C21 70 21 70 19 72 C15.85340068 72.4456098 12.67457507 72.32411997 9.5 72.3125 C8.17935547 72.33666992 8.17935547 72.33666992 6.83203125 72.36132812 C5.56939453 72.36229492 5.56939453 72.36229492 4.28125 72.36328125 C3.50845703 72.36626221 2.73566406 72.36924316 1.93945312 72.37231445 C1.29943359 72.24945068 0.65941406 72.12658691 0 72 C-2.20192224 68.69711664 -2.23959968 67.72537273 -2.1953125 63.89453125 C-2.19031738 63.00870361 -2.18532227 62.12287598 -2.18017578 61.21020508 C-2.16196777 60.0889624 -2.14375977 58.96771973 -2.125 57.8125 C-2.08375 54.244375 -2.0425 50.67625 -2 47 C-11.57 47 -21.14 47 -31 47 C-34 36 -34 36 -35 25 C-24.11 25 -13.22 25 -2 25 C-2.07900998 17.89474348 -2.07900998 17.89474348 -2.18017578 10.78979492 C-2.1851709 9.90396729 -2.19016602 9.01813965 -2.1953125 8.10546875 C-2.21102295 6.74651489 -2.21102295 6.74651489 -2.22705078 5.36010742 C-2 3 -2 3 0 0 Z " fill="#FAFBFD" transform="translate(260,150)"/>
<path d="M0 0 C2.71387262 5.62877284 4.85840366 11.30440118 6.75 17.25 C6.97260498 17.93513672 7.19520996 18.62027344 7.42456055 19.32617188 C8.57333301 23.02171294 9.10101485 26.14984369 9 30 C5.66805501 30.50954907 2.33426366 31.00587014 -1 31.5 C-1.93457031 31.64308594 -2.86914062 31.78617187 -3.83203125 31.93359375 C-9.28940391 32.7350261 -14.48470461 33.15609327 -20 33 C-20.66 30.69 -21.32 28.38 -22 26 C-22.87140625 26.144375 -23.7428125 26.28875 -24.640625 26.4375 C-41.33752533 29.03961434 -41.33752533 29.03961434 -48 28 C-50.44897847 24.32653229 -50.31537716 22.33643601 -50 18 C-47.58808847 15.58808847 -46.53242518 15.58863466 -43.2109375 15.1484375 C-42.26992187 15.01953125 -41.32890625 14.890625 -40.359375 14.7578125 C-39.37453125 14.63148438 -38.3896875 14.50515625 -37.375 14.375 C-36.38242188 14.2409375 -35.38984375 14.106875 -34.3671875 13.96875 C-31.91236225 13.63829276 -29.45675748 13.31571516 -27 13 C-27.33 10.36 -27.66 7.72 -28 5 C-24.27271829 4.15808127 -20.54289997 3.3279832 -16.8125 2.5 C-15.75740234 2.26152344 -14.70230469 2.02304687 -13.61523438 1.77734375 C-12.08286133 1.43896484 -12.08286133 1.43896484 -10.51953125 1.09375 C-9.58214111 0.88427734 -8.64475098 0.67480469 -7.67895508 0.45898438 C-5.06028801 0.01032912 -2.65060917 -0.08407959 0 0 Z " fill="#1D6FB2" transform="translate(264,287)"/>
<path d="M0 0 C0 9.9 0 19.8 0 30 C-9.9 30 -19.8 30 -30 30 C-30 27.69 -30 25.38 -30 23 C-31.87945312 23.06960938 -31.87945312 23.06960938 -33.796875 23.140625 C-35.44789281 23.17814813 -37.09893642 23.21454771 -38.75 23.25 C-39.575 23.28351563 -40.4 23.31703125 -41.25 23.3515625 C-47.34492933 23.44986781 -47.34492933 23.44986781 -50.59375 21.21875 C-52 19 -52 19 -51.75 15.25 C-51.5025 14.1775 -51.255 13.105 -51 12 C-50.34 12 -49.68 12 -49 12 C-49 11.34 -49 10.68 -49 10 C-43.06 9.67 -37.12 9.34 -31 9 C-30.67 6.69 -30.34 4.38 -30 2 C-25.56371297 1.46846536 -21.12583828 0.95160191 -16.6875 0.4375 C-14.79354492 0.21030273 -14.79354492 0.21030273 -12.86132812 -0.02148438 C-11.04858398 -0.2293457 -11.04858398 -0.2293457 -9.19921875 -0.44140625 C-8.08377686 -0.57232666 -6.96833496 -0.70324707 -5.8190918 -0.83813477 C-3 -1 -3 -1 0 0 Z " fill="#1B6DB4" transform="translate(275,322)"/>
<path d="M0 0 C9.57 0 19.14 0 29 0 C28.24295404 6.81341361 27.69107453 10.58561194 25.1875 16.5625 C24.68605469 17.78066406 24.18460937 18.99882812 23.66796875 20.25390625 C21.89964551 24.22538631 19.94420271 28.11159458 18 32 C8.76 32 -0.48 32 -10 32 C-9.07988583 27.39942914 -7.89559434 24.20327441 -6 20 C-6.83144531 19.96261719 -7.66289062 19.92523438 -8.51953125 19.88671875 C-9.60621094 19.82097656 -10.69289062 19.75523437 -11.8125 19.6875 C-12.89144531 19.62949219 -13.97039062 19.57148438 -15.08203125 19.51171875 C-18 19 -18 19 -19.85546875 17.67578125 C-21.84074095 14.76901751 -21.48264581 12.3785207 -21 9 C-17.05947959 5.76771844 -13.1029757 5.47713316 -8.1875 5.3125 C-7.49462891 5.27833984 -6.80175781 5.24417969 -6.08789062 5.20898438 C-4.39247151 5.12713656 -2.69626542 5.06187635 -1 5 C-0.67 3.35 -0.34 1.7 0 0 Z " fill="#1A6DB3" transform="translate(244,357)"/>
<path d="M0 0 C1.80863184 2.34237648 3.16598299 4.42825043 4.5625 7 C5.14729126 8.02915527 5.14729126 8.02915527 5.74389648 9.07910156 C6.85057251 11.04187668 7.92961354 13.01725658 9 15 C9.4846875 15.88171875 9.969375 16.7634375 10.46875 17.671875 C12.0233505 20.62561596 13 22.61894471 13 26 C9.10759042 26.87029965 5.21066414 27.71838289 1.3125 28.5625 C0.20970703 28.80935547 -0.89308594 29.05621094 -2.02929688 29.31054688 C-3.09599609 29.53935547 -4.16269531 29.76816406 -5.26171875 30.00390625 C-6.73064575 30.32597046 -6.73064575 30.32597046 -8.22924805 30.65454102 C-11.14749266 31.01838947 -13.1978609 30.87107234 -16 30 C-17.3125 27.9375 -17.3125 27.9375 -18 26 C-23.09428415 26.41756427 -27.71549583 27.12292201 -32.625 28.5625 C-36.98558557 29.79616707 -40.48986038 30.65772869 -45 30 C-47 28.4375 -47 28.4375 -48 26 C-47.6875 22.25 -47.6875 22.25 -47 19 C-29.76595745 13 -29.76595745 13 -25 13 C-25.33 10.36 -25.66 7.72 -26 5 C-22.60641656 4.15731913 -19.20980915 3.32752099 -15.8125 2.5 C-14.85279297 2.26152344 -13.89308594 2.02304687 -12.90429688 1.77734375 C-11.97294922 1.55175781 -11.04160156 1.32617188 -10.08203125 1.09375 C-8.80162964 0.77954102 -8.80162964 0.77954102 -7.49536133 0.45898438 C-4.87293815 -0.02337113 -2.65553724 -0.29196423 0 0 Z " fill="#1E6EB3" transform="translate(248,257)"/>
<path d="M0 0 C3.95099928 -0.0246985 7.90196874 -0.04285923 11.85302734 -0.05493164 C13.85906551 -0.06244036 15.86508202 -0.0751447 17.87109375 -0.08789062 C19.75634766 -0.09272461 19.75634766 -0.09272461 21.6796875 -0.09765625 C23.42354736 -0.10551147 23.42354736 -0.10551147 25.20263672 -0.11352539 C28 0 28 0 30 1 C31.04808041 2.97522846 32.0520411 4.97481509 33 7 C33.7113208 7.01458252 34.4226416 7.02916504 35.15551758 7.04418945 C38.37506332 7.11861006 41.59356518 7.21529 44.8125 7.3125 C45.93205078 7.33505859 47.05160156 7.35761719 48.20507812 7.38085938 C49.81479492 7.4340332 49.81479492 7.4340332 51.45703125 7.48828125 C52.44678955 7.51446533 53.43654785 7.54064941 54.45629883 7.56762695 C57.37451992 8.06366012 58.27199143 8.6379111 60 11 C60.94016982 14.15628441 61.38686889 16.06435674 60.11328125 19.14453125 C56.66658074 22.17074704 52.75056091 21.67857546 48.3125 21.75 C47.41982422 21.77964844 46.52714844 21.80929687 45.60742188 21.83984375 C43.40485723 21.91051427 41.20334869 21.96321939 39 22 C38.34 23.98 37.68 25.96 37 28 C29.41 28 21.82 28 14 28 C12.80375 25.40125 11.6075 22.8025 10.375 20.125 C7.57102975 14.09640634 4.60139815 8.30858433 1.03125 2.6875 C0 1 0 1 0 0 Z " fill="#F8FAFC" transform="translate(260,258)"/>
<path d="M0 0 C8.04352742 -0.6308649 8.04352742 -0.6308649 11.9375 1.9375 C12.618125 2.618125 13.29875 3.29875 14 4 C16.23707667 5.11853833 17.61376396 5.17919083 20.09765625 5.28125 C21.29938477 5.33732422 21.29938477 5.33732422 22.52539062 5.39453125 C24.22069639 5.46500585 25.91600894 5.53531761 27.61132812 5.60546875 C33.89934885 5.89934885 33.89934885 5.89934885 35 7 C36.95223586 7.10951521 38.90807728 7.15588423 40.86328125 7.17578125 C42.06017578 7.19962891 43.25707031 7.22347656 44.49023438 7.24804688 C47.02652464 7.29081518 49.56303444 7.32217407 52.09960938 7.34179688 C53.30037109 7.36951172 54.50113281 7.39722656 55.73828125 7.42578125 C57.39404175 7.44765503 57.39404175 7.44765503 59.08325195 7.4699707 C62.64109636 8.11649956 63.83294027 9.15156016 66 12 C66.5 15.0625 66.5 15.0625 66 18 C64.17424336 20.14676879 62.6912587 20.92263343 59.890625 21.23608398 C57.33720884 21.29567392 54.80300012 21.26103545 52.25 21.1875 C50.91775391 21.16719727 50.91775391 21.16719727 49.55859375 21.14648438 C47.37177422 21.11121309 45.18620034 21.06192752 43 21 C43 22.98 43 24.96 43 27 C38.45943197 27.26200753 33.92080597 27.42142326 29.375 27.5625 C27.44720703 27.67561523 27.44720703 27.67561523 25.48046875 27.79101562 C16.19165098 28.00759428 16.19165098 28.00759428 12.93408203 25.25317383 C11.34894436 22.90738285 10.16646519 20.57738265 9 18 C8.16134916 16.55622442 7.3102309 15.11960068 6.4453125 13.69140625 C5.66818438 12.3171847 4.89470189 10.94089471 4.125 9.5625 C3.52171875 8.50385742 3.52171875 8.50385742 2.90625 7.42382812 C0 2.24892379 0 2.24892379 0 0 Z " fill="#F7F9FB" transform="translate(242,226)"/>
<path d="M0 0 C1.4921875 2.15234375 1.4921875 2.15234375 2.875 4.9375 C5.33665498 9.75405452 8.00567698 14.33717185 10.8984375 18.90625 C12 21 12 21 12 24 C10.21142578 24.41572266 10.21142578 24.41572266 8.38671875 24.83984375 C6.82029523 25.20565523 5.25388993 25.57154471 3.6875 25.9375 C2.90181641 26.11990234 2.11613281 26.30230469 1.30664062 26.49023438 C0.1706543 26.75610352 0.1706543 26.75610352 -0.98828125 27.02734375 C-2.03302612 27.27085571 -2.03302612 27.27085571 -3.09887695 27.51928711 C-4.7534406 27.93765565 -6.38094108 28.46031369 -8 29 C-10.33299825 29.03954234 -12.66708189 29.04401732 -15 29 C-15.66 27.68 -16.32 26.36 -17 25 C-23.43566819 25.40484681 -29.29208493 26.47569535 -35.45703125 28.37890625 C-38.1036312 29.02531085 -40.28731831 29.22682833 -43 29 C-45.5216604 26.73920102 -45.95780733 25.29534867 -46.4375 21.9375 C-46 19 -46 19 -44.4453125 17.453125 C-41.26915948 15.5656986 -37.99031842 14.69299598 -34.4375 13.8125 C-33.76525391 13.63525391 -33.09300781 13.45800781 -32.40039062 13.27539062 C-29.51902919 12.53430561 -26.98706553 12 -24 12 C-24 9.36 -24 6.72 -24 4 C-20.75393904 3.1303597 -17.50267592 2.28203087 -14.25 1.4375 C-12.86941406 1.0672168 -12.86941406 1.0672168 -11.4609375 0.68945312 C-10.57148438 0.46064453 -9.68203125 0.23183594 -8.765625 -0.00390625 C-7.94868164 -0.21861572 -7.13173828 -0.4333252 -6.29003906 -0.65454102 C-3.81267222 -1.02825894 -2.32790406 -0.9034319 0 0 Z " fill="#1C6EB3" transform="translate(232,229)"/>
<path d="M0 0 C9.59441508 0.46920411 18.6416621 1.94194229 28 4 C28 5.98 28 7.96 28 10 C29.69769531 10.29003906 29.69769531 10.29003906 31.4296875 10.5859375 C32.91153202 10.84854286 34.39329892 11.11158648 35.875 11.375 C36.62136719 11.50132813 37.36773437 11.62765625 38.13671875 11.7578125 C43.7734375 12.7734375 43.7734375 12.7734375 46 15 C46.3125 18.5 46.3125 18.5 46 22 C42.67995379 24.21336414 41.92589068 24.20762974 38.11328125 23.9765625 C37.17548828 23.925 36.23769531 23.8734375 35.27148438 23.8203125 C34.29501953 23.75585938 33.31855469 23.69140625 32.3125 23.625 C30.83040039 23.53992188 30.83040039 23.53992188 29.31835938 23.453125 C26.87817115 23.31166481 24.43901409 23.16025726 22 23 C21.34 24.32 20.68 25.64 20 27 C9.54936693 26.39507314 -0.68750074 24.71515417 -11 23 C-9.21569974 17.03093798 -7.02247213 11.77197447 -3.8125 6.4375 C-3.44447266 5.81037109 -3.07644531 5.18324219 -2.69726562 4.53710938 C-1.80570114 3.02029187 -0.9039601 1.50946306 0 0 Z " fill="#F7FAFB" transform="translate(242,113)"/>
<path d="M0 0 C0.37125 1.175625 0.7425 2.35125 1.125 3.5625 C3.42554826 10.49748605 6.24619739 17.23580524 9 24 C5.58511508 24.84075218 2.16782787 25.67129993 -1.25 26.5 C-2.21808594 26.73847656 -3.18617188 26.97695312 -4.18359375 27.22265625 C-5.11816406 27.44824219 -6.05273438 27.67382812 -7.015625 27.90625 C-7.87446289 28.11572266 -8.73330078 28.32519531 -9.61816406 28.54101562 C-12 29 -12 29 -16 29 C-16.495 26.525 -16.495 26.525 -17 24 C-21.47044413 24.39323351 -25.79103125 24.86428511 -30.125 26.0625 C-34.03954086 27.00956634 -37.01861617 27.16589099 -41 27 C-41 26.34 -41 25.68 -41 25 C-41.66 25 -42.32 25 -43 25 C-44.25 18.375 -44.25 18.375 -42 15 C-39.35212216 14.129983 -36.8305655 13.42783658 -34.125 12.8125 C-33.40441406 12.63525391 -32.68382812 12.45800781 -31.94140625 12.27539062 C-28.50960151 11.45693996 -25.54649462 11 -22 11 C-22 8.69 -22 6.38 -22 4 C-14.45079357 1.00634918 -8.1125455 -0.13987147 0 0 Z " fill="#1D6FB2" transform="translate(220,200)"/>
<path d="M0 0 C7.26 0 14.52 0 22 0 C22.99 2.31 23.98 4.62 25 7 C25.65073486 7.01458252 26.30146973 7.02916504 26.97192383 7.04418945 C29.91938306 7.11864549 32.86570642 7.21531266 35.8125 7.3125 C36.83666016 7.33505859 37.86082031 7.35761719 38.91601562 7.38085938 C39.89892578 7.41630859 40.88183594 7.45175781 41.89453125 7.48828125 C42.80050049 7.51446533 43.70646973 7.54064941 44.63989258 7.56762695 C47.43622921 8.07991744 48.35924674 8.70201413 50 11 C50.65403397 17.10431701 50.65403397 17.10431701 48.76831055 19.68676758 C46.51502839 21.36016323 45.12201248 21.42286584 42.33203125 21.51171875 C41.43935547 21.54716797 40.54667969 21.58261719 39.62695312 21.61914062 C38.69818359 21.64169922 37.76941406 21.66425781 36.8125 21.6875 C35.87212891 21.72166016 34.93175781 21.75582031 33.96289062 21.79101562 C31.64204607 21.87348218 29.32157852 21.94263403 27 22 C26.67 23.98 26.34 25.96 26 28 C19.73 28 13.46 28 7 28 C6.1028125 24.1328125 6.1028125 24.1328125 5.1875 20.1875 C3.60463368 13.41363885 1.88644705 6.69688703 0 0 Z " fill="#FBFCFC" transform="translate(277,291)"/>
<path d="M0 0 C0.04898438 0.88300781 0.09796875 1.76601562 0.1484375 2.67578125 C0.62031894 10.25029197 1.43858896 17.57192807 3 25 C-4.09784913 26.81774185 -10.65081658 28.43230491 -18 28 C-18.495 25.525 -18.495 25.525 -19 23 C-24.08303686 22.88679144 -24.08303686 22.88679144 -29 24 C-30.66267874 24.14220279 -32.3315173 24.22020567 -34 24.25 C-34.86625 24.27578125 -35.7325 24.3015625 -36.625 24.328125 C-39 24 -39 24 -40.7890625 22.671875 C-42.66397746 20.08328273 -42.38727735 18.09821879 -42 15 C-39.82950042 12.16230901 -38.02886238 11.5409806 -34.55078125 11.05078125 C-33.70322266 10.92509766 -32.85566406 10.79941406 -31.98242188 10.66992188 C-31.10134766 10.55197266 -30.22027344 10.43402344 -29.3125 10.3125 C-27.97348633 10.11817383 -27.97348633 10.11817383 -26.60742188 9.91992188 C-24.40628656 9.60211089 -22.20416436 9.29593975 -20 9 C-19.71125 7.865625 -19.4225 6.73125 -19.125 5.5625 C-18.75375 4.386875 -18.3825 3.21125 -18 2 C-15.21350481 0.60675241 -12.66405028 0.65533463 -9.5625 0.4375 C-8.40878906 0.35371094 -7.25507813 0.26992187 -6.06640625 0.18359375 C-4.04696134 0.06268431 -2.02306125 0 0 0 Z " fill="#1D6FB2" transform="translate(215,170)"/>
<path d="M0 0 C5.94 0 11.88 0 18 0 C18.33 2.31 18.66 4.62 19 7 C20.04800781 7.02578125 21.09601563 7.0515625 22.17578125 7.078125 C23.55472902 7.13440858 24.93363365 7.19175588 26.3125 7.25 C27.00279297 7.26417969 27.69308594 7.27835937 28.40429688 7.29296875 C31.69135704 7.45176393 33.53881221 7.55267557 35.94921875 9.890625 C37.29444139 12.59107194 37.59501684 14.0249158 37 17 C34.87137553 19.30076175 33.15715051 20.81508143 29.99560547 21.3203125 C27.71374123 21.3931541 25.46823727 21.34941185 23.1875 21.25 C22.00510742 21.22292969 22.00510742 21.22292969 20.79882812 21.1953125 C18.86535739 21.14844048 16.93251715 21.0767041 15 21 C14.34 23.31 13.68 25.62 13 28 C8.71 28 4.42 28 0 28 C0 18.76 0 9.52 0 0 Z " fill="#F7FAFB" transform="translate(285,324)"/>
<path d="M0 0 C3.015625 -0.5859375 3.015625 -0.5859375 6.25 -0.375 C7.32765625 -0.32085937 8.4053125 -0.26671875 9.515625 -0.2109375 C10.33546875 -0.14132813 11.1553125 -0.07171875 12 0 C11.86722656 0.79921875 11.73445313 1.5984375 11.59765625 2.421875 C10.38784317 9.94567606 9.54943745 17.39944858 9 25 C0.585 25.495 0.585 25.495 -8 26 C-8 24.02 -8 22.04 -8 20 C-8.97582031 20.03480469 -9.95164063 20.06960937 -10.95703125 20.10546875 C-12.86548828 20.14607422 -12.86548828 20.14607422 -14.8125 20.1875 C-16.70935547 20.23970703 -16.70935547 20.23970703 -18.64453125 20.29296875 C-22 20 -22 20 -23.92578125 18.640625 C-25.47888312 16.26861488 -25.40696893 14.78095435 -25 12 C-24.03515625 9.89453125 -24.03515625 9.89453125 -22 8 C-18.26226354 7.17834242 -14.41740555 7.17019939 -10.60351562 7.04296875 C-8.26970103 6.88597712 -6.23194031 6.70774306 -4 6 C-2.6031145 4.04385873 -1.26324286 2.04499273 0 0 Z " fill="#1D70B2" transform="translate(206,141)"/>
<path d="M0 0 C2.52108103 0.14224587 5.04180403 0.28870121 7.5625 0.4375 C8.26697266 0.47681641 8.97144531 0.51613281 9.69726562 0.55664062 C14.1798541 0.82518279 18.56293497 1.30616197 23 2 C21.125 6.75 21.125 6.75 20 9 C19.76811572 11.54786428 19.58133625 14.0725115 19.4375 16.625 C19.293125 19.05875 19.14875 21.4925 19 24 C11.41 24 3.82 24 -4 24 C-4 13.86602871 -4 13.86602871 -2.5625 8.625 C-2.29566406 7.62726563 -2.02882812 6.62953125 -1.75390625 5.6015625 C-1.20931654 3.72230473 -0.6187235 1.85617051 0 0 Z " fill="#F7F9FC" transform="translate(229,141)"/>
<path d="M0 0 C3.96 0 7.92 0 12 0 C8.22413507 12.26704445 0.38856743 21.59509619 -8 31 C-8.33 30.34 -8.66 29.68 -9 29 C-8.32585878 27.15793869 -7.55871521 25.34957469 -6.75 23.5625 C-3.45799971 15.94517711 -1.11361371 8.24074148 0 0 Z " fill="#ECF2F9" transform="translate(283,357)"/>
<path d="M0 0 C0.94875 0.165 1.8975 0.33 2.875 0.5 C5.80168901 1.0526635 5.80168901 1.0526635 8 1 C8.99 1.33 9.98 1.66 11 2 C10.67 2.33 10.34 2.66 10 3 C15.28 3.33 20.56 3.66 26 4 C26 4.33 26 4.66 26 5 C24.79601562 5.03738281 23.59203125 5.07476562 22.3515625 5.11328125 C20.77600989 5.17892928 19.20049046 5.24537701 17.625 5.3125 C16.8309375 5.33505859 16.036875 5.35761719 15.21875 5.38085938 C13.13784419 5.47785075 11.06558668 5.72994825 9 6 C7.12222204 8.81666694 6.38697308 10.73186359 5.5 13.9375 C4.60293914 17.16984431 3.59178885 20.04284054 2 23 C0.68 23 -0.64 23 -2 23 C-3.19667203 19.40998391 -3.20538881 16.4095161 -3.25 12.625 C-3.27578125 11.31789062 -3.3015625 10.01078125 -3.328125 8.6640625 C-2.98913959 4.87872546 -2.22025401 3.02655678 0 0 Z " fill="#293E80" transform="translate(251,145)"/>
<path d="M0 0 C8.91 0 17.82 0 27 0 C26.34 0.33 25.68 0.66 25 1 C25.495 1.99 25.495 1.99 26 3 C26.14856188 7.53113746 26.10529324 11.57882704 25 16 C24.34 16 23.68 16 23 16 C23.66 12.37 24.32 8.74 25 5 C15.43 5 5.86 5 -4 5 C-4 6.65 -4 8.3 -4 10 C-6.13112021 12.13112021 -11.28220649 11.39927309 -14.27734375 11.51757812 C-18.24159136 11.72396823 -21.41247322 12.28271489 -25 14 C-24.67 12.68 -24.34 11.36 -24 10 C-18.06 10 -12.12 10 -6 10 C-5.67 8.02 -5.34 6.04 -5 4 C-3 2.75 -3 2.75 -1 2 C-0.67 1.34 -0.34 0.68 0 0 Z " fill="#183D84" transform="translate(248,352)"/>
<path d="M0 0 C4.95 0 9.9 0 15 0 C15.33 4.95 15.66 9.9 16 15 C12.7 15 9.4 15 6 15 C4.99267601 13.06629769 3.99436712 11.12789694 3 9.1875 C2.443125 8.10855469 1.88625 7.02960938 1.3125 5.91796875 C0 3 0 3 0 0 Z " fill="#F8FAFC" transform="translate(233,207)"/>
<path d="M0 0 C1 3 1 3 0 6 C1.32 6 2.64 6 4 6 C4 8.31 4 10.62 4 13 C4.66 13 5.32 13 6 13 C6 14.98 6 16.96 6 19 C2.4487998 15.29439979 2.51379308 11.90846981 2 7 C-0.93801079 7.47619135 -3.87538814 7.95582262 -6.8125 8.4375 C-8.06256836 8.63956055 -8.06256836 8.63956055 -9.33789062 8.84570312 C-10.14033203 8.97783203 -10.94277344 9.10996094 -11.76953125 9.24609375 C-12.87711792 9.42676392 -12.87711792 9.42676392 -14.00708008 9.61108398 C-16.19623596 9.99393076 -16.19623596 9.99393076 -19 11 C-19.33 13.31 -19.66 15.62 -20 18 C-26.6 19.65 -33.2 21.3 -40 23 C-40.33 25.31 -40.66 27.62 -41 30 C-41.33 30.66 -41.66 31.32 -42 32 C-43.86922654 30.13077346 -43.29230229 27.50248831 -43.42578125 25.0078125 C-43 23 -43 23 -41.49609375 21.37890625 C-38.05282054 19.47675376 -34.56729374 18.67914708 -30.75 17.8125 C-30.00492188 17.63525391 -29.25984375 17.45800781 -28.4921875 17.27539062 C-26.66347729 16.84165807 -24.83199221 16.41965403 -23 16 C-22.01 12.37 -21.02 8.74 -20 5 C-17.22970414 4.49685437 -14.4588348 3.99736162 -11.6875 3.5 C-10.90181641 3.35691406 -10.11613281 3.21382812 -9.30664062 3.06640625 C-8.54931641 2.93105469 -7.79199219 2.79570312 -7.01171875 2.65625 C-5.96697388 2.46772461 -5.96697388 2.46772461 -4.90112305 2.27539062 C-3 2 -3 2 0 2 C0 1.34 0 0.68 0 0 Z " fill="#153B83" transform="translate(218,193)"/>
<path d="M0 0 C0 3.61382774 -0.9995732 5.0284681 -2.8125 8.125 C-5.55815919 12.99968097 -7.41914023 17.64264189 -9 23 C-12.3 23 -15.6 23 -19 23 C-14.95854588 13.51136859 -8.12428385 6.24944912 0 0 Z " fill="#226AAC" transform="translate(229,113)"/>
<path d="M0 0 C1.20398438 0.18111328 2.40796875 0.36222656 3.6484375 0.54882812 C4.9065625 0.75572266 6.1646875 0.96261719 7.4609375 1.17578125 C9.35972656 1.45711914 9.35972656 1.45711914 11.296875 1.74414062 C18.18413562 2.81935138 18.18413562 2.81935138 20.8359375 3.48828125 C21.3309375 4.47828125 21.3309375 4.47828125 21.8359375 5.48828125 C19.49665649 7.66851073 18.33579686 8.47642846 15.08691406 8.5534668 C14.06049805 8.41207275 13.03408203 8.27067871 11.9765625 8.125 C10.86152344 7.97998047 9.74648437 7.83496094 8.59765625 7.68554688 C6.85935547 7.43321289 6.85935547 7.43321289 5.0859375 7.17578125 C3.32443359 6.94084961 3.32443359 6.94084961 1.52734375 6.70117188 C-1.37224245 6.31220299 -4.26870358 5.9073797 -7.1640625 5.48828125 C-7.4940625 6.47828125 -7.8240625 7.46828125 -8.1640625 8.48828125 C-9.1540625 8.15828125 -10.1440625 7.82828125 -11.1640625 7.48828125 C-8.82681322 0.83611023 -7.20892935 -1.10862294 0 0 Z " fill="#2B3F7C" transform="translate(236.1640625,135.51171875)"/>
<path d="M0 0 C1.72172499 3.44344998 -0.26885687 7.08962353 -1.3125 10.625 C-1.76794075 12.20022811 -2.22237512 13.77574755 -2.67578125 15.3515625 C-2.89830566 16.12145508 -3.12083008 16.89134766 -3.35009766 17.68457031 C-4.31023762 21.10529434 -5.15878512 24.54825443 -6 28 C-6.33 28 -6.66 28 -7 28 C-6.85851011 26.3954444 -6.71164314 24.79136233 -6.5625 23.1875 C-6.48128906 22.29417969 -6.40007812 21.40085938 -6.31640625 20.48046875 C-6 18 -6 18 -5 15 C-6.91711003 15.00602865 -8.83411368 15.0562481 -10.75 15.125 C-12.35101563 15.15980469 -12.35101563 15.15980469 -13.984375 15.1953125 C-17.29115537 15.70647256 -17.29115537 15.70647256 -18.82421875 18.98046875 C-21 22 -21 22 -22.94482422 22.63085938 C-25.32420581 22.93076857 -27.66614632 23.09423445 -30.0625 23.1875 C-31.67906783 23.27312059 -33.29507435 23.37031937 -34.91015625 23.48046875 C-35.62308838 23.51035889 -36.33602051 23.54024902 -37.07055664 23.57104492 C-39.4885213 24.10860837 -40.42255133 25.13968139 -42 27 C-42 24 -42 24 -41 22 C-38.40742331 21.13580777 -36.65962293 20.82419068 -33.98828125 20.68359375 C-33.23095703 20.64169922 -32.47363281 20.59980469 -31.69335938 20.55664062 C-30.90767578 20.51732422 -30.12199219 20.47800781 -29.3125 20.4375 C-28.51521484 20.39431641 -27.71792969 20.35113281 -26.89648438 20.30664062 C-24.93118553 20.20072632 -22.96561504 20.09987449 -21 20 C-21 19.01 -21 18.02 -21 17 C-20.34 17 -19.68 17 -19 17 C-18.67 15.68 -18.34 14.36 -18 13 C-17.195625 12.87625 -16.39125 12.7525 -15.5625 12.625 C-14.716875 12.41875 -13.87125 12.2125 -13 12 C-12.67 11.34 -12.34 10.68 -12 10 C-9.0170339 9.40227901 -6.03669195 9.25662185 -3 9 C-2.01 6.03 -1.02 3.06 0 0 Z " fill="#153D84" transform="translate(223,126)"/>
<path d="M0 0 C0.66 0.66 1.32 1.32 2 2 C2.825 2 3.65 2 4.5 2 C5.325 2 6.15 2 7 2 C9 4 9 4 9 7 C9.99 7.33 10.98 7.66 12 8 C12.495 11.465 12.495 11.465 13 15 C10.59424393 12.81482901 9.20464419 10.74080329 7.8125 7.8125 C7.46832031 7.09707031 7.12414062 6.38164062 6.76953125 5.64453125 C6.51558594 5.10183594 6.26164062 4.55914062 6 4 C-2.02078543 5.57089116 -10.01144087 7.27336618 -18 9 C-18 7.68 -18 6.36 -18 5 C-18.66 4.67 -19.32 4.34 -20 4 C-17.41806023 3.32749476 -14.83467929 2.66182099 -12.25 2 C-11.15558594 1.71382812 -11.15558594 1.71382812 -10.0390625 1.421875 C-6.55428354 0.53484036 -3.61876278 0 0 0 Z " fill="#153C84" transform="translate(225,225)"/>
<path d="M0 0 C0.99 -0.33 1.98 -0.66 3 -1 C3.625 0.875 3.625 0.875 4 3 C3.34 3.66 2.68 4.32 2 5 C2 4.34 2 3.68 2 3 C1.34926514 3.15670166 0.69853027 3.31340332 0.02807617 3.47485352 C-2.91685919 4.1790829 -5.86456976 4.8709196 -8.8125 5.5625 C-9.83666016 5.80935547 -10.86082031 6.05621094 -11.91601562 6.31054688 C-12.89892578 6.53935547 -13.88183594 6.76816406 -14.89453125 7.00390625 C-15.80050049 7.21861572 -16.70646973 7.4333252 -17.63989258 7.65454102 C-20 8 -20 8 -23 7 C-23 6.67 -23 6.34 -23 6 C-24.65 5.67 -26.3 5.34 -28 5 C-28 4.67 -28 4.34 -28 4 C-22.66666667 2.66666667 -17.33333333 1.33333333 -12 0 C-11.32420898 -0.18248291 -10.64841797 -0.36496582 -9.95214844 -0.55297852 C-6.52569947 -1.33759933 -3.17629266 -1.58814633 0 0 Z " fill="#163C85" transform="translate(246,254)"/>
<path d="M0 0 C3 2 3 2 3.6875 3.625 C4.14333263 7.08932799 4.01771757 10.50609548 4 14 C1.27238489 14.67363372 -1.456799 15.33909444 -4.1875 16 C-4.95642578 16.19078125 -5.72535156 16.3815625 -6.51757812 16.578125 C-10.42078253 17.51623421 -13.95229795 18.25957208 -18 18 C-17.34 17.34 -16.68 16.68 -16 16 C-17.65 16 -19.3 16 -21 16 C-21 15.34 -21 14.68 -21 14 C-17.93929066 13.32492934 -14.8761791 12.66145078 -11.8125 12 C-10.94818359 11.80921875 -10.08386719 11.6184375 -9.19335938 11.421875 C-7.93168945 11.15117187 -7.93168945 11.15117187 -6.64453125 10.875 C-5.87471924 10.70742188 -5.10490723 10.53984375 -4.31176758 10.3671875 C-1.83939753 9.97449085 0.50075809 9.93814715 3 10 C2.505 8.906875 2.01 7.81375 1.5 6.6875 C0 3 0 3 0 0 Z " fill="#173C85" transform="translate(258,273)"/>
<path d="M0 0 C0.33 1.32 0.66 2.64 1 4 C-2.45657707 4.3925703 -5.91530096 4.76105763 -9.375 5.125 C-10.35984375 5.23714844 -11.3446875 5.34929687 -12.359375 5.46484375 C-13.77089844 5.60986328 -13.77089844 5.60986328 -15.2109375 5.7578125 C-16.08024902 5.8520752 -16.94956055 5.94633789 -17.84521484 6.04345703 C-20 6 -20 6 -22 4 C-20.09793967 1.47317533 -18.9579327 0.98987077 -15.8203125 0.234375 C-14.60085938 0.07453125 -13.38140625 -0.0853125 -12.125 -0.25 C-10.91070312 -0.42015625 -9.69640625 -0.5903125 -8.4453125 -0.765625 C-5.32817432 -0.97767522 -2.99701357 -0.79768422 0 0 Z " fill="#193C85" transform="translate(271,318)"/>
<path d="M0 0 C0.928125 0.0825 1.85625 0.165 2.8125 0.25 C2.4825 0.91 2.1525 1.57 1.8125 2.25 C0.575 2.62125 0.575 2.62125 -0.6875 3 C-1.925 3.61875 -1.925 3.61875 -3.1875 4.25 C-3.5175 6.23 -3.8475 8.21 -4.1875 10.25 C1.4225 10.58 7.0325 10.91 12.8125 11.25 C13.1425 12.9 13.4725 14.55 13.8125 16.25 C18.1025 16.25 22.3925 16.25 26.8125 16.25 C26.77125 14.331875 26.73 12.41375 26.6875 10.4375 C26.5625 4.625 26.5625 4.625 28.8125 1.25 C28.4825 6.53 28.1525 11.81 27.8125 17.25 C19.3975 17.745 19.3975 17.745 10.8125 18.25 C10.8125 16.27 10.8125 14.29 10.8125 12.25 C9.83667969 12.28480469 8.86085937 12.31960937 7.85546875 12.35546875 C5.94701172 12.39607422 5.94701172 12.39607422 4 12.4375 C2.10314453 12.48970703 2.10314453 12.48970703 0.16796875 12.54296875 C-3.1875 12.25 -3.1875 12.25 -5.11328125 10.890625 C-6.66638312 8.51861488 -6.59446893 7.03095435 -6.1875 4.25 C-4.51835588 0.81898154 -3.86953096 0.30349262 0 0 Z " fill="#2665A8" transform="translate(187.1875,148.75)"/>
<path d="M0 0 C0.99 0.33 1.98 0.66 3 1 C2.01 2.32 1.02 3.64 0 5 C0.99 5 1.98 5 3 5 C3.33 6.32 3.66 7.64 4 9 C3.01 9.33 2.02 9.66 1 10 C0.67 9.34 0.34 8.68 0 8 C-7.26 7.67 -14.52 7.34 -22 7 C-22 6.67 -22 6.34 -22 6 C-14.08 5.505 -14.08 5.505 -6 5 C-6 4.67 -6 4.34 -6 4 C-11.94 3.67 -17.88 3.34 -24 3 C-24 2.67 -24 2.34 -24 2 C-23.01604248 1.96241577 -23.01604248 1.96241577 -22.01220703 1.92407227 C-19.04959817 1.8082674 -16.08731969 1.68547114 -13.125 1.5625 C-12.09246094 1.52318359 -11.05992187 1.48386719 -9.99609375 1.44335938 C-9.00996094 1.40146484 -8.02382813 1.35957031 -7.0078125 1.31640625 C-6.09660645 1.27974854 -5.18540039 1.24309082 -4.24658203 1.20532227 C-1.96516519 1.13422935 -1.96516519 1.13422935 0 0 Z " fill="#3D4E82" transform="translate(299,284)"/>
<path d="M0 0 C8.58 0 17.16 0 26 0 C26 0.33 26 0.66 26 1 C25.02417969 1.06058594 24.04835937 1.12117187 23.04296875 1.18359375 C21.13451172 1.30927734 21.13451172 1.30927734 19.1875 1.4375 C17.92292969 1.51871094 16.65835938 1.59992188 15.35546875 1.68359375 C11.59058921 2.03860567 9.6960073 2.3039927 7 5 C9.92824652 5.97608217 11.95613276 6.08226668 15 6 C15 6.66 15 7.32 15 8 C15.99 8.33 16.98 8.66 18 9 C11.34454208 9.54330269 7.54165256 8.77304004 2 5 C2.33 4.01 2.66 3.02 3 2 C2.01 1.34 1.02 0.68 0 0 Z " fill="#1E3378" transform="translate(230,198)"/>
<path d="M0 0 C0.33 0 0.66 0 1 0 C1.495 7.92 1.495 7.92 2 16 C1.34 16 0.68 16 0 16 C0 16.66 0 17.32 0 18 C-2.85506049 18.95168683 -4.90937282 19.1900946 -7.88671875 19.31640625 C-8.82451172 19.35830078 -9.76230469 19.40019531 -10.72851562 19.44335938 C-11.70498047 19.48267578 -12.68144531 19.52199219 -13.6875 19.5625 C-14.67556641 19.60568359 -15.66363281 19.64886719 -16.68164062 19.69335938 C-19.12095546 19.79941654 -21.56037113 19.90147714 -24 20 C-24.33 19.01 -24.66 18.02 -25 17 C-17.41 16.67 -9.82 16.34 -2 16 C-0.5192152 13.0384304 -0.64685963 10.16493705 -0.4375 6.875 C-0.35371094 5.59367188 -0.26992188 4.31234375 -0.18359375 2.9921875 C-0.09271484 1.51105469 -0.09271484 1.51105469 0 0 Z " fill="#2A3B72" transform="translate(306,180)"/>
<path d="M0 0 C0.33 0 0.66 0 1 0 C1 3.96 1 7.92 1 12 C0.67 12 0.34 12 0 12 C0 8.04 0 4.08 0 0 Z M-10 12 C-6.7 12 -3.4 12 0 12 C-0.33 13.32 -0.66 14.64 -1 16 C-4.04213267 17.52106634 -7.28047572 17.37429338 -10.625 17.5625 C-11.33140625 17.60568359 -12.0378125 17.64886719 -12.765625 17.69335938 C-14.51018537 17.79944751 -16.25506697 17.90022889 -18 18 C-17.938125 19.423125 -17.938125 19.423125 -17.875 20.875 C-18 24 -18 24 -20 26 C-22.625 26.125 -22.625 26.125 -25 26 C-23.68 25.67 -22.36 25.34 -21 25 C-21 24.01 -21 23.02 -21 22 C-20.34 22 -19.68 22 -19 22 C-19.020625 21.195625 -19.04125 20.39125 -19.0625 19.5625 C-19 17 -19 17 -18 16 C-14.89957227 15.67553663 -11.7979275 15.48665559 -8.6875 15.28125 C-6.08403248 15.29392201 -6.08403248 15.29392201 -5 14 C-7.475 13.505 -7.475 13.505 -10 13 C-10 12.67 -10 12.34 -10 12 Z " fill="#153F86" transform="translate(215,154)"/>
<path d="M0 0 C0.99 0.33 1.98 0.66 3 1 C1.68 3.64 0.36 6.28 -1 9 C-10.24 9 -19.48 9 -29 9 C-28 4 -28 4 -26 2 C-25.67 3.65 -25.34 5.3 -25 7 C-17.41 7 -9.82 7 -2 7 C-2 6.01 -2 5.02 -2 4 C-1.34 4 -0.68 4 0 4 C0 2.68 0 1.36 0 0 Z " fill="#2767AD" transform="translate(263,380)"/>
<path d="M0 0 C0 3.63 0 7.26 0 11 C-0.33 11 -0.66 11 -1 11 C-1.33 8.03 -1.66 5.06 -2 2 C-3.79206547 2.14084796 -5.58364917 2.28783701 -7.375 2.4375 C-8.87160156 2.55931641 -8.87160156 2.55931641 -10.3984375 2.68359375 C-12.97927613 2.84965626 -12.97927613 2.84965626 -15 4 C-15.433125 5.155 -15.86625 6.31 -16.3125 7.5 C-18 11 -18 11 -20.3125 12 C-23.31399915 12 -26.06477944 11.61434849 -29 11 C-29 10.67 -29 10.34 -29 10 C-24.545 9.505 -24.545 9.505 -20 9 C-19.71125 7.865625 -19.4225 6.73125 -19.125 5.5625 C-18.75375 4.386875 -18.3825 3.21125 -18 2 C-15.21350481 0.60675241 -12.66405028 0.65533463 -9.5625 0.4375 C-8.40878906 0.35371094 -7.25507813 0.26992187 -6.06640625 0.18359375 C-4.04696134 0.06268431 -2.02306125 0 0 0 Z " fill="#2567AA" transform="translate(215,170)"/>
<path d="M0 0 C14.78031621 -0.29429833 29.29001922 0.56785273 44 2 C44 2.33 44 2.66 44 3 C39.85418113 3.02886751 35.70838784 3.04675327 31.5625 3.0625 C30.37849609 3.07087891 29.19449219 3.07925781 27.97460938 3.08789062 C26.84990234 3.09111328 25.72519531 3.09433594 24.56640625 3.09765625 C23.00321655 3.10551147 23.00321655 3.10551147 21.40844727 3.11352539 C19 3 19 3 18 2 C16.65984779 1.84417697 15.31241097 1.74955858 13.96484375 1.68359375 C13.15595703 1.64169922 12.34707031 1.59980469 11.51367188 1.55664062 C10.66353516 1.51732422 9.81339844 1.47800781 8.9375 1.4375 C8.08349609 1.39431641 7.22949219 1.35113281 6.34960938 1.30664062 C4.23327963 1.20023298 2.11666187 1.09958269 0 1 C0 0.67 0 0.34 0 0 Z " fill="#3B4C7E" transform="translate(258,231)"/>
<path d="M0 0 C-1.65 0.33 -3.3 0.66 -5 1 C-5.12375 2.093125 -5.2475 3.18625 -5.375 4.3125 C-6 8 -6 8 -8 11 C-10.77262255 11.38394667 -13.34323528 11.60342248 -16.125 11.6875 C-16.87910156 11.72166016 -17.63320312 11.75582031 -18.41015625 11.79101562 C-20.27291201 11.87354278 -22.13643326 11.93844711 -24 12 C-21.36518239 10.60025314 -18.89629292 9.58775959 -16 8.875 C-15.34 8.70742187 -14.68 8.53984375 -14 8.3671875 C-12 8 -12 8 -8 8 C-8 5.69 -8 3.38 -8 1 C-4.93251126 -0.86240388 -3.40254489 -1.2151946 0 0 Z " fill="#2466A9" transform="translate(206,203)"/>
<path d="M0 0 C0.66 0 1.32 0 2 0 C2.35609663 7.12193266 2.35609663 7.12193266 1.0859375 10.25390625 C-2.36619689 13.14361425 -6.22705863 12.37655472 -10.5625 12.1875 C-12.29285197 12.13529659 -14.02332534 12.0869327 -15.75390625 12.04296875 C-16.90354858 11.99692505 -16.90354858 11.99692505 -18.07641602 11.94995117 C-20.0857039 11.86626925 -20.0857039 11.86626925 -22 13 C-22.33 12.01 -22.66 11.02 -23 10 C-22.40461426 9.98018066 -21.80922852 9.96036133 -21.19580078 9.93994141 C-18.50507847 9.84483874 -15.81514852 9.73510158 -13.125 9.625 C-12.18785156 9.5940625 -11.25070312 9.563125 -10.28515625 9.53125 C-8.94130859 9.47324219 -8.94130859 9.47324219 -7.5703125 9.4140625 C-6.74289551 9.3826416 -5.91547852 9.3512207 -5.06298828 9.31884766 C-2.78013915 9.17400863 -2.78013915 9.17400863 -1 7 C-0.59952556 4.67724823 -0.2602896 2.34260643 0 0 Z " fill="#2D3F75" transform="translate(327,302)"/>
<path d="M0 0 C0.33 1.32 0.66 2.64 1 4 C0.09906616 4.26478149 0.09906616 4.26478149 -0.82006836 4.53491211 C-3.52687158 5.33245 -6.23219163 6.13490682 -8.9375 6.9375 C-9.88302734 7.21529297 -10.82855469 7.49308594 -11.80273438 7.77929688 C-12.70185547 8.04677734 -13.60097656 8.31425781 -14.52734375 8.58984375 C-15.35999756 8.83597412 -16.19265137 9.08210449 -17.05053711 9.33569336 C-18.98038525 9.83330673 -18.98038525 9.83330673 -20 11 C-20.07148199 12.35243917 -20.08399454 13.70834367 -20.0625 15.0625 C-20.041875 16.361875 -20.02125 17.66125 -20 19 C-20.66 18.67 -21.32 18.34 -22 18 C-22.05399736 16.54207116 -22.09279177 15.08357288 -22.125 13.625 C-22.15980469 12.40683594 -22.15980469 12.40683594 -22.1953125 11.1640625 C-22 9 -22 9 -20 7 C-17.18594919 6.20917957 -14.41119836 5.51013506 -11.5625 4.875 C-10.78583984 4.69324219 -10.00917969 4.51148438 -9.20898438 4.32421875 C-6.03471741 3.59695345 -3.27228099 3 0 3 C0 2.01 0 1.02 0 0 Z " fill="#143C84" transform="translate(207,237)"/>
<path d="M0 0 C10.56 0 21.12 0 32 0 C33 5 33 5 32 8 C30 5 30 5 30 2 C15.15 1.505 15.15 1.505 0 1 C0 0.67 0 0.34 0 0 Z " fill="#2D3E73" transform="translate(260,257)"/>
<path d="M0 0 C0 0.66 0 1.32 0 2 C-0.99 2.66 -1.98 3.32 -3 4 C-3 5.98 -3 7.96 -3 10 C1.29 10 5.58 10 10 10 C5.58435744 12.20782128 1.93808497 13.21510597 -3 13 C-5.82139918 10.86257638 -5.94125131 9.41124083 -6.4375 5.9375 C-6 3 -6 3 -4.125 1.125 C-2 0 -2 0 0 0 Z " fill="#2666A9" transform="translate(192,245)"/>
<path d="M0 0 C0.76441406 -0.01417969 1.52882812 -0.02835938 2.31640625 -0.04296875 C4.4375 0.1875 4.4375 0.1875 7.4375 2.1875 C7.4375 2.8475 7.4375 3.5075 7.4375 4.1875 C9.7475 4.1875 12.0575 4.1875 14.4375 4.1875 C10.7933226 6.6169516 8.72508728 6.34929575 4.4375 6.1875 C3.7775 4.8675 3.1175 3.5475 2.4375 2.1875 C-3.9975 2.6825 -3.9975 2.6825 -10.5625 3.1875 C-7.44893168 0.07393168 -4.27601432 0.03617609 0 0 Z " fill="#2569AC" transform="translate(212.5625,251.8125)"/>
<path d="M0 0 C0.66 0.99 1.32 1.98 2 3 C1.030625 3.433125 0.06125 3.86625 -0.9375 4.3125 C-4.27731765 5.7014861 -4.27731765 5.7014861 -5 9 C-6.31647119 9.69937532 -7.65022151 10.36729133 -9 11 C-9.33 11.66 -9.66 12.32 -10 13 C-12.5625 13.625 -12.5625 13.625 -15 14 C-10.55487173 8.41509524 -5.75545909 4.20788009 0 0 Z " fill="#475388" transform="translate(106,83)"/>
<path d="M0 0 C6.93 0.495 6.93 0.495 14 1 C12.35 5.29 10.7 9.58 9 14 C8.34 13.67 7.68 13.34 7 13 C7.88776002 9.30099992 8.94581864 5.65449539 10 2 C6.7 2 3.4 2 0 2 C0 1.34 0 0.68 0 0 Z " fill="#163D85" transform="translate(225,375)"/>
<path d="M0 0 C0.99 0.33 1.98 0.66 3 1 C3.33 1.99 3.66 2.98 4 4 C0.7 6.97 -2.6 9.94 -6 13 C-6.66 12.34 -7.32 11.68 -8 11 C-7.34 10.01 -6.68 9.02 -6 8 C-5.01 8 -4.02 8 -3 8 C-3 7.01 -3 6.02 -3 5 C-2.34 4.34 -1.68 3.68 -1 3 C-0.67 2.01 -0.34 1.02 0 0 Z " fill="#334277" transform="translate(403,402)"/>
<path d="M0 0 C0.99 0.33 1.98 0.66 3 1 C2.25 6.75 2.25 6.75 0 9 C-2.625 8.625 -2.625 8.625 -5 8 C-5 7.34 -5 6.68 -5 6 C-4.34 6 -3.68 6 -3 6 C-2.690625 5.195625 -2.38125 4.39125 -2.0625 3.5625 C-1 1 -1 1 0 0 Z " fill="#1B72B2" transform="translate(218,126)"/>
<path d="M0 0 C0 4.29 0 8.58 0 13 C-0.33 13 -0.66 13 -1 13 C-1 9.37 -1 5.74 -1 2 C-7.93 2 -14.86 2 -22 2 C-22 1.67 -22 1.34 -22 1 C-18.89698871 0.63517625 -15.79249627 0.28499056 -12.6875 -0.0625 C-11.36588867 -0.2181543 -11.36588867 -0.2181543 -10.01757812 -0.37695312 C-9.17001953 -0.47041016 -8.32246094 -0.56386719 -7.44921875 -0.66015625 C-6.27879028 -0.79369507 -6.27879028 -0.79369507 -5.0847168 -0.92993164 C-3 -1 -3 -1 0 0 Z " fill="#2463A9" transform="translate(275,322)"/>
<path d="M0 0 C1.3921875 0.3403125 1.3921875 0.3403125 2.8125 0.6875 C1.8225 1.1825 1.8225 1.1825 0.8125 1.6875 C0.16036708 3.71213255 0.16036708 3.71213255 -0.1875 5.6875 C-1.5075 5.6875 -2.8275 5.6875 -4.1875 5.6875 C-4.5175 6.6775 -4.8475 7.6675 -5.1875 8.6875 C-6.1775 8.3575 -7.1675 8.0275 -8.1875 7.6875 C-5.30379098 -0.51997951 -5.30379098 -0.51997951 0 0 Z " fill="#374886" transform="translate(233.1875,135.3125)"/>
<path d="M0 0 C0.99 0.495 0.99 0.495 2 1 C2 1.66 2 2.32 2 3 C2.65355469 2.67257812 3.30710938 2.34515625 3.98046875 2.0078125 C7.7948756 0.7346987 11.34480837 0.78281056 15.3125 0.875 C16.05306641 0.88402344 16.79363281 0.89304687 17.55664062 0.90234375 C19.37123467 0.92575787 21.18566071 0.96162385 23 1 C23 1.33 23 1.66 23 2 C8.40318907 4.29612756 8.40318907 4.29612756 1 4 C0.67 2.68 0.34 1.36 0 0 Z " fill="#2767AC" transform="translate(243,316)"/>
<path d="M0 0 C0.33 0 0.66 0 1 0 C1.04254356 1.99954746 1.04080783 4.00041636 1 6 C0 7 0 7 -3.81640625 7.09765625 C-5.39846682 7.09098089 -6.98051159 7.07901875 -8.5625 7.0625 C-9.36880859 7.05798828 -10.17511719 7.05347656 -11.00585938 7.04882812 C-13.00393756 7.03700518 -15.00197783 7.01906914 -17 7 C-17 6.67 -17 6.34 -17 6 C-12.05 5.67 -7.1 5.34 -2 5 C-1.34 3.35 -0.68 1.7 0 0 Z " fill="#184288" transform="translate(244,325)"/>
<path d="M0 0 C4.95 0 9.9 0 15 0 C15 0.33 15 0.66 15 1 C14.39671875 1.01417969 13.7934375 1.02835938 13.171875 1.04296875 C7.71123416 1.31278946 7.71123416 1.31278946 3.4375 4.5625 C2.7259375 5.7690625 2.7259375 5.7690625 2 7 C0.5393715 4.35261084 0 3.10551666 0 0 Z " fill="#D5DFF2" transform="translate(233,207)"/>
<path d="M0 0 C0.33 0 0.66 0 1 0 C1.06058594 1.24136719 1.12117188 2.48273438 1.18359375 3.76171875 C1.26803623 5.40365577 1.35268236 7.04558232 1.4375 8.6875 C1.47681641 9.50412109 1.51613281 10.32074219 1.55664062 11.16210938 C1.76898003 15.19655811 2.04447922 19.05747309 3 23 C2.01 23.33 1.02 23.66 0 24 C0 16.08 0 8.16 0 0 Z " fill="#17458C" transform="translate(275,328)"/>
<path d="M0 0 C4.06762061 1.35587354 4.86334252 3.9484594 6.6875 7.5625 C7.00783203 8.17802734 7.32816406 8.79355469 7.65820312 9.42773438 C8.44746371 10.9473555 9.22487915 12.47311811 10 14 C9.01 14.33 8.02 14.66 7 15 C5.74335022 12.09399739 5 10.20395416 5 7 C4.01 6.67 3.02 6.34 2 6 C0.8125 2.9375 0.8125 2.9375 0 0 Z " fill="#304278" transform="translate(247,239)"/>
<path d="M0 0 C4.29 0 8.58 0 13 0 C13 1.65 13 3.3 13 5 C12.01 4.01 11.02 3.02 10 2 C9.67 2.33 9.34 2.66 9 3 C6.66702567 3.04092937 4.33294775 3.04241723 2 3 C2 2.34 2 1.68 2 1 C1.34 0.67 0.68 0.34 0 0 Z " fill="#153D83" transform="translate(185,161)"/>
<path d="M0 0 C5.61 0 11.22 0 17 0 C17 1.98 17 3.96 17 6 C15 4.625 15 4.625 13 3 C13 2.34 13 1.68 13 1 C12.22914063 1.09539062 11.45828125 1.19078125 10.6640625 1.2890625 C9.66117188 1.39992188 8.65828125 1.51078125 7.625 1.625 C6.62726563 1.74101562 5.62953125 1.85703125 4.6015625 1.9765625 C3.74304688 1.98429687 2.88453125 1.99203125 2 2 C1.34 1.34 0.68 0.68 0 0 Z " fill="#143B84" transform="translate(228,345)"/>
<path d="M0 0 C7.26 0 14.52 0 22 0 C21.34 0.66 20.68 1.32 20 2 C17.08047432 1.98251781 14.27702115 1.86055367 11.375 1.625 C10.57320313 1.56828125 9.77140625 1.5115625 8.9453125 1.453125 C6.96284502 1.31152018 4.98130949 1.15697741 3 1 C2.34 2.32 1.68 3.64 1 5 C0.67 3.35 0.34 1.7 0 0 Z " fill="#E9F3FD" transform="translate(277,291)"/>
<path d="M0 0 C3 1 3 1 4.1875 2.875 C5 5 5 5 5 8 C1.7 8.33 -1.6 8.66 -5 9 C-2.68143083 7.45428722 -0.49361571 6.20381448 2 5 C1.34 4.34 0.68 3.68 0 3 C0 2.01 0 1.02 0 0 Z " fill="#2464AA" transform="translate(239,245)"/>
<path d="M0 0 C5.94 0 11.88 0 18 0 C18 0.33 18 0.66 18 1 C13.38 1.33 8.76 1.66 4 2 C3.34 3.65 2.68 5.3 2 7 C0.5393715 4.35261084 0 3.10551666 0 0 Z " fill="#25376D" transform="translate(285,247)"/>
<path d="M0 0 C-3.56521085 1.94909021 -6.91766874 2.68934047 -10.87890625 3.4375 C-13.27653722 3.95116341 -13.27653722 3.95116341 -16 6 C-16 4.68 -16 3.36 -16 2 C-14.08654673 1.46748234 -12.1690705 0.94940517 -10.25 0.4375 C-9.18265625 0.14746094 -8.1153125 -0.14257812 -7.015625 -0.44140625 C-4.15664073 -0.97098494 -2.68402617 -0.98370862 0 0 Z " fill="#2567AA" transform="translate(238,260)"/>
<path d="M0 0 C0.33 1.65 0.66 3.3 1 5 C0.01 5.495 0.01 5.495 -1 6 C-1.33 5.01 -1.66 4.02 -2 3 C-5.96 2.67 -9.92 2.34 -14 2 C-14 1.67 -14 1.34 -14 1 C-9.23692563 0.04738513 -4.8333472 -0.08333357 0 0 Z " fill="#2262A6" transform="translate(220,200)"/>
<path d="M0 0 C1.98 0 3.96 0 6 0 C6.33 0.66 6.66 1.32 7 2 C6.34 2 5.68 2 5 2 C5 2.66 5 3.32 5 4 C2.03 3.67 -0.94 3.34 -4 3 C-2.68 2.67 -1.36 2.34 0 2 C0 1.34 0 0.68 0 0 Z " fill="#253672" transform="translate(234,137)"/>
<path d="M0 0 C1.98 0 3.96 0 6 0 C6 1.32 6 2.64 6 4 C4.02 4.33 2.04 4.66 0 5 C0 3.35 0 1.7 0 0 Z " fill="#F9FDFD" transform="translate(284,357)"/>
<path d="M0 0 C3.96 0 7.92 0 12 0 C11.34 1.32 10.68 2.64 10 4 C3.375 3.375 3.375 3.375 0 0 Z " fill="#123A80" transform="translate(186,257)"/>
<path d="M0 0 C0.66 0.99 1.32 1.98 2 3 C1.67 3.66 1.34 4.32 1 5 C1.66 5 2.32 5 3 5 C2.67 5.99 2.34 6.98 2 8 C-1 8 -1 8 -4 7 C-2.68 4.69 -1.36 2.38 0 0 Z " fill="#32437E" transform="translate(292,363)"/>
<path d="M0 0 C1.65 0.33 3.3 0.66 5 1 C3.5625 3.0625 3.5625 3.0625 1 5 C-2.07583023 5.05823431 -4.98735648 4.59222907 -8 4 C-8 3.67 -8 3.34 -8 3 C-5.36 3 -2.72 3 0 3 C0 2.01 0 1.02 0 0 Z " fill="#384981" transform="translate(253,139)"/>
<path d="M0 0 C-0.33 0.66 -0.66 1.32 -1 2 C-3.31 2 -5.62 2 -8 2 C-8 2.66 -8 3.32 -8 4 C-10.31 3.67 -12.62 3.34 -15 3 C-15 2.67 -15 2.34 -15 2 C-13.43883181 1.66048381 -11.87598662 1.32867456 -10.3125 1 C-9.44238281 0.814375 -8.57226562 0.62875 -7.67578125 0.4375 C-5.06287036 0.01027953 -2.64186962 -0.07616201 0 0 Z " fill="#2561A9" transform="translate(264,287)"/>
<path d="M0 0 C1.258125 -0.04125 2.51625 -0.0825 3.8125 -0.125 C4.52019531 -0.14820313 5.22789062 -0.17140625 5.95703125 -0.1953125 C8 0 8 0 11 2 C8.03 2 5.06 2 2 2 C1.67 2.99 1.34 3.98 1 5 C0.34 5 -0.32 5 -1 5 C-0.67 3.35 -0.34 1.7 0 0 Z " fill="#2B3A6E" transform="translate(264,135)"/>
<path d="M0 0 C0.33 0.66 0.66 1.32 1 2 C5.29 2 9.58 2 14 2 C9.52777778 4.23611111 9.52777778 4.23611111 5.875 4.0625 C2.2050965 3.70512683 2.2050965 3.70512683 0 5 C-0.5625 3.0625 -0.5625 3.0625 -1 1 C-0.67 0.67 -0.34 0.34 0 0 Z " fill="#2E417C" transform="translate(284,350)"/>
<path d="M0 0 C2.1519437 3.22791555 2.20086443 4.28400809 2 8 C0.35 8 -1.3 8 -3 8 C-2.01 5.36 -1.02 2.72 0 0 Z " fill="#2466AB" transform="translate(271,309)"/>
<path d="M0 0 C3.82097239 0.53069061 6.06171403 1.49701566 9 4 C5.71023192 5.09658936 4.28696233 4.79953138 1 4 C0.67 2.68 0.34 1.36 0 0 Z " fill="#394882" transform="translate(376,74)"/>
<path d="M0 0 C0.99 0.33 1.98 0.66 3 1 C3.33 1.99 3.66 2.98 4 4 C2.68 4.99 1.36 5.98 0 7 C-1.125 2.25 -1.125 2.25 0 0 Z " fill="#38498B" transform="translate(403,402)"/>
<path d="M0 0 C-0.49831724 3.68754757 -1.10067643 5.60490662 -4 8 C-4 5.69 -4 3.38 -4 1 C-2 0 -2 0 0 0 Z " fill="#394A83" transform="translate(425,378)"/>
<path d="M0 0 C0.66 0.99 1.32 1.98 2 3 C0.625 6.6875 0.625 6.6875 -1 10 C-1.66 9.67 -2.32 9.34 -3 9 C-2.67 8.67 -2.34 8.34 -2 8 C-1.95907063 5.66702567 -1.95758277 3.33294775 -2 1 C-1.34 0.67 -0.68 0.34 0 0 Z " fill="#243870" transform="translate(309,236)"/>
<path d="M0 0 C1.32 1.65 2.64 3.3 4 5 C3.01 6.485 3.01 6.485 2 8 C1.34 7.34 0.68 6.68 0 6 C-0.33 6 -0.66 6 -1 6 C-1.042721 4.33388095 -1.04063832 2.66617115 -1 1 C-0.67 0.67 -0.34 0.34 0 0 Z " fill="#263B85" transform="translate(229,126)"/>
<path d="M0 0 C2.64 0 5.28 0 8 0 C8 0.33 8 0.66 8 1 C6.824375 1.0928125 6.824375 1.0928125 5.625 1.1875 C4.75875 1.455625 3.8925 1.72375 3 2 C1.62533375 4.47636012 1.62533375 4.47636012 1 7 C0.67 7 0.34 7 0 7 C0 4.69 0 2.38 0 0 Z " fill="#2564AA" transform="translate(245,324)"/>
<path d="M0 0 C0.66 0 1.32 0 2 0 C1.34 3.3 0.68 6.6 0 10 C-0.66 9.34 -1.32 8.68 -2 8 C-1.42307692 1.42307692 -1.42307692 1.42307692 0 0 Z " fill="#2269A8" transform="translate(202,275)"/>
<path d="M0 0 C1.65 0 3.3 0 5 0 C5 0.66 5 1.32 5 2 C5.99 2.33 6.98 2.66 8 3 C5.03 3 2.06 3 -1 3 C-0.67 2.01 -0.34 1.02 0 0 Z " fill="#1A2E68" transform="translate(240,204)"/>
<path d="M0 0 C0.99 0.66 1.98 1.32 3 2 C2.34 3.32 1.68 4.64 1 6 C0.01 6 -0.98 6 -2 6 C-1.34 4.02 -0.68 2.04 0 0 Z " fill="#E7E9F3" transform="translate(236,123)"/>
<path d="M0 0 C0 3 0 3 -1 6 C-2.65 6 -4.3 6 -6 6 C-4 4 -2 2 0 0 Z " fill="#2665A5" transform="translate(229,113)"/>
</svg>
